<svg xmlns="http://www.w3.org/2000/svg" width="1600" height="900" viewBox="0 0 1600 900">
  <defs>
    <linearGradient id="bg" x1="0" x2="1" y1="0" y2="1">
      <stop offset="0" stop-color="#07180f"/>
      <stop offset="0.45" stop-color="#102719"/>
      <stop offset="1" stop-color="#06100c"/>
    </linearGradient>
    <linearGradient id="panel" x1="0" x2="1" y1="0" y2="1">
      <stop offset="0" stop-color="#123522"/>
      <stop offset="1" stop-color="#0b2017"/>
    </linearGradient>
    <linearGradient id="accent" x1="0" x2="1">
      <stop offset="0" stop-color="#28e38b"/>
      <stop offset="1" stop-color="#49b6ff"/>
    </linearGradient>
    <filter id="shadow" x="-20%" y="-20%" width="140%" height="140%">
      <feDropShadow dx="0" dy="18" stdDeviation="20" flood-color="#000000" flood-opacity="0.35"/>
    </filter>
    <style>
      .title { font: 800 62px Arial, Helvetica, sans-serif; fill: #f4fff7; letter-spacing: 0; }
      .subtitle { font: 500 26px Arial, Helvetica, sans-serif; fill: #b9d7c5; letter-spacing: 0; }
      .eyebrow { font: 700 20px Arial, Helvetica, sans-serif; fill: #64f2a4; letter-spacing: 2px; }
      .label { font: 800 28px Arial, Helvetica, sans-serif; fill: #f4fff7; letter-spacing: 0; }
      .team { font: 700 30px Arial, Helvetica, sans-serif; fill: #eafff1; letter-spacing: 0; }
      .small { font: 500 22px Arial, Helvetica, sans-serif; fill: #aacbb8; letter-spacing: 0; }
      .metric { font: 900 78px Arial, Helvetica, sans-serif; fill: #ffffff; letter-spacing: 0; }
      .note { font: 500 20px Arial, Helvetica, sans-serif; fill: #9db8a8; letter-spacing: 0; }
      .mono { font: 700 22px Consolas, Menlo, monospace; fill: #c7f7d9; letter-spacing: 0; }
    </style>
  </defs>

  <rect width="1600" height="900" fill="url(#bg)"/>
  <path d="M0 120 C260 40, 415 180, 655 90 C890 2, 1130 80, 1600 20 L1600 0 L0 0 Z" fill="#1f5a35" opacity="0.28"/>
  <path d="M0 760 C280 850, 460 690, 735 780 C1020 870, 1220 730, 1600 800 L1600 900 L0 900 Z" fill="#0ea963" opacity="0.18"/>

  <text x="96" y="96" class="eyebrow">CS2 PICK'EM MONTE CARLO</text>
  <text x="96" y="168" class="title">IEM Cologne 2026 Stage 1</text>
  <text x="98" y="212" class="subtitle">Reward-optimized picks: maximize P(at least 5 correct)</text>

  <g transform="translate(1075 85)">
    <rect x="0" y="0" width="360" height="170" rx="8" fill="url(#panel)" stroke="#2b7f4c" stroke-width="2" filter="url(#shadow)"/>
    <text x="30" y="52" class="small">10k simulation run</text>
    <text x="30" y="125" class="metric">66.6%</text>
    <text x="245" y="122" class="small">P(5+ hits)</text>
  </g>

  <g transform="translate(96 295)" filter="url(#shadow)">
    <rect x="0" y="0" width="430" height="420" rx="8" fill="url(#panel)" stroke="#2b7f4c" stroke-width="2"/>
    <rect x="0" y="0" width="430" height="86" rx="8" fill="#0c4f32"/>
    <text x="30" y="55" class="label">3-0 picks</text>
    <circle cx="54" cy="156" r="14" fill="url(#accent)"/>
    <text x="90" y="166" class="team">SINNERS</text>
    <circle cx="54" cy="238" r="14" fill="url(#accent)"/>
    <text x="90" y="248" class="team">TYLOO</text>
    <text x="30" y="346" class="note">Lottery slots: upside matters,</text>
    <text x="30" y="378" class="note">but do not burn the safest advances.</text>
  </g>

  <g transform="translate(585 295)" filter="url(#shadow)">
    <rect x="0" y="0" width="520" height="420" rx="8" fill="url(#panel)" stroke="#2b7f4c" stroke-width="2"/>
    <rect x="0" y="0" width="520" height="86" rx="8" fill="#105b3b"/>
    <text x="30" y="55" class="label">Advance picks</text>
    <text x="30" y="150" class="team">GamerLegion</text>
    <text x="290" y="150" class="team">B8</text>
    <text x="30" y="218" class="team">BetBoom</text>
    <text x="290" y="218" class="team">MIBR</text>
    <text x="30" y="286" class="team">Lynn Vision</text>
    <text x="290" y="286" class="team">HEROIC</text>
    <text x="30" y="366" class="note">Stable-score slots: high advancement probability.</text>
  </g>

  <g transform="translate(1164 295)" filter="url(#shadow)">
    <rect x="0" y="0" width="340" height="420" rx="8" fill="url(#panel)" stroke="#2b7f4c" stroke-width="2"/>
    <rect x="0" y="0" width="340" height="86" rx="8" fill="#713047"/>
    <text x="30" y="55" class="label">0-3 picks</text>
    <circle cx="54" cy="156" r="14" fill="#ff5277"/>
    <text x="90" y="166" class="team">FlyQuest</text>
    <circle cx="54" cy="238" r="14" fill="#ff5277"/>
    <text x="90" y="248" class="team">THUNDER</text>
    <text x="90" y="286" class="team">dOWNUNDER</text>
    <text x="30" y="366" class="note">Chosen for reward threshold,</text>
    <text x="30" y="398" class="note">not max average hits.</text>
  </g>

  <g transform="translate(96 775)">
    <rect x="0" y="0" width="1408" height="58" rx="8" fill="#07130e" opacity="0.75" stroke="#1f5a35"/>
    <text x="28" y="37" class="mono">github.com/lshhhhhhh/cs2-pickem-monte-carlo</text>
    <text x="720" y="37" class="note">VRS: 2026-05-26 | Stage 1 only | Model result, not a guarantee</text>
  </g>
</svg>
